<?xml version="1.0" encoding="UTF-8"?>
<svg id="Capa_2" data-name="Capa 2" xmlns="http://www.w3.org/2000/svg" viewBox="0 0 132.7 51.1">
  <g id="Capa_2-2" data-name="Capa 2">
    <g>
      <polygon points="60 40 60 40.4 60.9 40.4 60.9 42.8 61.3 42.8 61.3 40.4 62.3 40.4 62.3 40 60 40"/>
      <polygon points="60.5 44.2 60.5 47 62.2 47 62.2 46.7 60.9 46.7 60.9 45.8 61.9 45.8 61.9 45.4 60.9 45.4 60.9 44.6 62.1 44.6 62.1 44.2 60.5 44.2"/>
      <polygon points="74 43.5 73.7 44 74 44 74.4 43.5 74 43.5"/>
      <polygon points="57.8 44.2 57.8 44.6 58.8 44.6 58.8 47 59.1 47 59.1 44.6 60.1 44.6 60.1 44.2 57.8 44.2"/>
      <polygon points="73.1 44.2 73.1 47 74.7 47 74.7 46.7 73.4 46.7 73.4 45.8 74.4 45.8 74.4 45.4 73.4 45.4 73.4 44.6 74.7 44.6 74.7 44.2 73.1 44.2"/>
      <path d="M73.5,40.3c.5,0,.8.3.8.3l.2-.3s-.3-.4-1-.4c-.8,0-1.4.6-1.4,1.4s.6,1.4,1.4,1.4c.7,0,1.1-.4,1.1-.4l-.2-.3s-.3.4-.8.4c-.6,0-1-.5-1-1.1-.2-.5.3-1,.9-1h0Z"/>
      <path d="M70.9,40h-.4l-1,2.8h.4l.3-.8h1l.3.8h.4l-1-2.8ZM70.2,41.7l.3-.9c0-.1.1-.4.1-.4,0,0,.1.2.1.4l.3.9h-.8Z"/>
      <rect x="15.1" y="15.5" width="5.3" height="20.4"/>
      <path d="M71.5,46.7c-.6,0-1-.5-1-1.1s.4-1.1,1-1.1c.5,0,.8.3.8.3l.2-.3s-.3-.4-1-.4c-.8,0-1.4.6-1.4,1.4s.6,1.4,1.4,1.4c.7,0,1.1-.4,1.1-.4l-.2-.3c-.1.1-.4.5-.9.5h0Z"/>
      <path d="M67.4,41l1.2,1.8h.4v-2.8h-.4v2.2h0s-.1-.2-.2-.4l-1.2-1.8h-.4v2.8h.4v-2.2h0s.1.2.2.4h0Z"/>
      <polygon points="45.5 44.2 45.5 47 47.1 47 47.1 46.7 45.9 46.7 45.9 44.2 45.5 44.2"/>
      <path d="M48.9,42.8v-2.8h-.4v2.2h0s-.1-.2-.2-.4l-1.2-1.8h-.4v2.8h.4v-2.2h0s.1.3.2.4l1.2,1.8h.4Z"/>
      <path d="M50.3,45c0-.2.2-.4.5-.4.4,0,.6.2.6.2l.2-.3s-.3-.3-.8-.3-.9.3-.9.8c0,.8,1.3.7,1.3,1.3,0,.3-.2.4-.5.4-.4,0-.7-.3-.7-.3l-.2.3s.3.4.9.4c.5,0,.9-.4.9-.8,0-.9-1.3-.8-1.3-1.3h0Z"/>
      <path d="M62.9,45c0-.2.2-.4.5-.4.4,0,.6.2.6.2l.2-.3s-.3-.3-.8-.3-.9.3-.9.8c0,.8,1.3.7,1.3,1.3,0,.3-.2.4-.5.4-.4,0-.7-.3-.7-.3l-.2.3s.3.4.9.4c.5,0,.9-.4.9-.8,0-.9-1.3-.8-1.3-1.3h0Z"/>
      <path d="M68.4,45c0-.2.2-.4.5-.4.4,0,.6.2.6.2l.2-.3s-.3-.3-.8-.3-.9.3-.9.8c0,.8,1.3.7,1.3,1.3,0,.3-.2.4-.5.4-.4,0-.7-.3-.7-.3l-.2.3s.3.4.9.4c.5,0,.9-.4.9-.8,0-.9-1.3-.8-1.3-1.3h0Z"/>
      <path d="M50.3,42.5c-.4,0-.7-.3-.7-.3l-.2.3s.3.4.9.4c.5,0,.9-.4.9-.8,0-.9-1.3-.7-1.3-1.3,0-.2.2-.4.5-.4.4,0,.6.2.6.2l.2-.3s-.3-.3-.8-.3-.9.3-.9.8c0,.8,1.3.7,1.3,1.3,0,.2-.2.4-.5.4h0Z"/>
      <path d="M48.7,44.2h-.4l-1,2.8h.4l.3-.8h1l.3.8h.4l-1-2.8ZM48,45.9l.3-.9c0-.1.1-.4.1-.4,0,0,.1.2.1.4l.3.9h-.8Z"/>
      <rect x="45.5" y="40" width=".4" height="2.8"/>
      <path d="M88.4,47h.4v-1.2l.9-1.6h-.4l-.5.9c-.1.2-.2.4-.2.4h0s-.1-.2-.2-.4l-.5-.9h-.4l.9,1.6v1.2h0Z"/>
      <path d="M59.6,41.8v-1.8h-.4v1.8c0,.4-.3.7-.7.7s-.7-.2-.7-.7v-1.8h-.4v1.8c0,.6.4,1,1.1,1s1.1-.4,1.1-1h0Z"/>
      <polygon points="54.8 40 54.8 40.4 55.8 40.4 55.8 42.8 56.2 42.8 56.2 40.4 57.1 40.4 57.1 40 54.8 40"/>
      <path d="M57.1,45.9l-.1-.1c.3-.1.5-.4.5-.8s-.2-.6-.5-.7c-.1,0-.2-.1-.5-.1h-.8v2.8h.4v-1.1h.6l.6,1.1h.4l-.6-1.1ZM56.6,45.6h-.6v-1h.4c.2,0,.3,0,.4.1.1.1.2.2.2.4.1.3-.1.5-.4.5Z"/>
      <rect x="54.1" y="40" width=".4" height="2.8"/>
      <polygon points="51.4 40 51.4 40.4 52.3 40.4 52.3 42.8 52.7 42.8 52.7 40.4 53.7 40.4 53.7 40 51.4 40"/>
      <path d="M54.3,44.2h-.4l-1,2.8h.4l.3-.8h1l.3.8h.4l-1-2.8ZM53.6,45.9l.3-.9c0-.1.1-.4.1-.4,0,0,.1.2.1.4l.3.9h-.8Z"/>
      <path d="M0,0v51.1h20.8c11,0,17.4-2.7,19.4-11.3h.4v11.3h92.1V0H0ZM131.7,50.2H41.4v-11.3h-1.9l-.1.7c-1.7,7.6-7.1,10.6-18.5,10.6H1V.8h130.9l-.2,49.4Z"/>
      <path d="M77.1,46v.4h0s-.1-.3-.2-.4l-1.2-1.8h-.4v2.8h.4v-2.2h0s.1.3.2.4l1.2,1.8h.4v-2.8h-.4v1.8h0Z"/>
      <path d="M107.9,46c0,.4-.3.7-.7.7s-.7-.2-.7-.7v-1.8h-.4v1.8c0,.6.4,1,1.1,1,.6,0,1.1-.4,1.1-1v-1.8h-.4v1.8h0Z"/>
      <polygon points="107.3 43.5 107.1 44 107.4 44 107.7 43.5 107.3 43.5"/>
      <rect x="111.2" y="44.2" width=".4" height="2.8"/>
      <rect x="75.1" y="40" width=".4" height="2.8"/>
      <path d="M104.9,44.2l-.6,1.5c-.1.1-.1.4-.1.4h0s-.1-.2-.1-.4l-.6-1.5h-.4l-.2,2.8h.4l.1-1.7v-.4h0s.1.3.1.4l.6,1.2h.3l.5-1.2c.1-.2.1-.4.1-.4h0v.4l.1,1.7h.4l-.2-2.8h-.4,0Z"/>
      <polygon points="97.2 44.2 97.2 47 98.9 47 98.9 46.7 97.6 46.7 97.6 44.2 97.2 44.2"/>
      <path d="M100.4,44.2h-.4l-1,2.8h.4l.3-.8h1l.3.8h.4l-1-2.8ZM99.8,45.9l.3-.9c0-.1.1-.4.1-.4,0,0,.1.2.1.4l.3.9h-.8Z"/>
      <polygon points="65.9 44.2 65.9 47 67.5 47 67.5 46.7 66.2 46.7 66.2 45.8 67.2 45.8 67.2 45.4 66.2 45.4 66.2 44.6 67.5 44.6 67.5 44.2 65.9 44.2"/>
      <path d="M72.2,28.5v-.7h6.6c5.6,0,7.9-1.9,7.9-6.6,0-3.7-2.2-5.8-6.2-5.8h-5.9c-5.2,0-7.8,2.4-7.9,7v5.8c0,5.1,2.8,7.7,8.2,7.7h10.5v-4.2h-7.8c-3.3,0-5.4-.7-5.4-3.2ZM72.1,22.5c.05-1.05.3-1.78.85-2.25.55-.47,1.4-.7,2.65-.75h2.8c1.9,0,2.9.2,2.9,1.9,0,1.8-1,2.1-3.3,2.1h-5.9v-1Z"/>
      <path d="M88.8,40h-.9v2.8h.9c.8,0,1.4-.5,1.4-1.4s-.6-1.4-1.4-1.4ZM88.8,42.3h-.5v-2h.5c.6,0,1,.4,1,1,0,.7-.4,1-1,1Z"/>
      <path d="M94.8,23.5c0-2.8.3-3.9,2.8-4,2.4.1,3,1.2,3,4v12.4h5.3v-12.4c0-2.8.6-3.9,3-4,2.4.1,3,1.2,3,4v12.4h5.3v-13.4c0-5.3-2.5-7.4-8.3-7.4h0c-2.4,0-4.3.4-5.6,1.2-1.3-.8-3.2-1.2-5.6-1.2h0c-5.8,0-8.3,2.1-8.3,7.4v13.4h5.5l-.1-12.4h0Z"/>
      <polygon points="94 44.2 94 47 95.7 47 95.7 46.7 94.4 46.7 94.4 45.8 95.4 45.8 95.4 45.4 94.4 45.4 94.4 44.6 95.6 44.6 95.6 44.2 94 44.2"/>
      <path d="M116.2,44.2h-.4l-1,2.8h.4l.3-.8h1l.3.8h.4l-1-2.8ZM115.6,45.9l.3-.9c0-.1.1-.4.1-.4,0,0,.1.2.1.4l.3.9h-.8Z"/>
      <path d="M113.5,46.7c-.6,0-1-.5-1-1.1s.4-1.1,1-1.1c.5,0,.8.3.8.3l.2-.3s-.3-.4-1-.4c-.8,0-1.4.6-1.4,1.4s.6,1.4,1.4,1.4c.7,0,1.1-.4,1.1-.4l-.2-.3c0,.1-.3.5-.9.5h0Z"/>
      <path d="M109.3,45c0-.2.2-.4.5-.4.4,0,.6.2.6.2l.2-.3s-.3-.3-.8-.3-.9.3-.9.8c0,.8,1.3.7,1.3,1.3,0,.3-.2.4-.5.4-.4,0-.7-.3-.7-.3l-.2.3s.3.4.9.4.9-.4.9-.8c0-.9-1.3-.8-1.3-1.3h0Z"/>
      <path d="M77.4,40c-.8,0-1.4.6-1.4,1.4s.6,1.4,1.4,1.4,1.4-.6,1.4-1.4-.6-1.4-1.4-1.4ZM77.4,42.5c-.6,0-1-.5-1-1.1s.5-1.1,1-1.1c.6,0,1,.5,1,1.1s-.4,1.1-1,1.1Z"/>
      <path d="M80.6,46.7c-.6,0-1-.5-1-1.1s.4-1.1,1-1.1c.5,0,.8.3.8.3l.2-.3s-.3-.4-1-.4c-.8,0-1.4.6-1.4,1.4s.6,1.4,1.4,1.4c.7,0,1.1-.4,1.1-.4l-.2-.3c0,.1-.4.5-.9.5h0Z"/>
      <path d="M81,41.8l-1.2-1.8h-.4v2.8h.4v-2.2h0s.1.3.2.4l1.2,1.8h.4v-2.8h-.4v2.2h0s-.1-.2-.2-.4h0Z"/>
      <path d="M30.1,23.4c0-2.6.3-3.7,2.7-3.8h.7c2.3.1,2.7,1.2,2.7,3.8v12.5h5.3v-13.7c0-5.1-2.4-7.1-8-7.1h-.7c-5.5,0-8,2-8,7.1v13.7h5.3v-12.5h0Z"/>
      <rect x="78.3" y="44.2" width=".4" height="2.8"/>
      <path d="M55.9,15.3h-10.5v4.1h7.8c3.3,0,5.4.7,5.4,3.2v.7l-6.5.2c-5.6,0-8,1.9-8,6.6,0,3.7,2.2,5.8,6.2,5.8h5.9c5.2,0,7.9-2.4,7.9-7.1v-5.8c0-5.1-2.8-7.7-8.2-7.7ZM58.8,28.9c0,1.05-.25,1.78-.81,2.25-.57.47-1.44.7-2.69.75h-2.8c-1.9,0-2.9-.2-2.9-1.9,0-1.8,1-2.1,3.3-2.1h5.9v1Z"/>
      <path d="M83.4,40h-.4l-1,2.8h.4l.3-.8h1l.3.8h.4l-1-2.8ZM82.8,41.7l.3-.9c0-.1.1-.4.1-.4,0,0,.1.2.1.4l.3.9h-.8Z"/>
      <polygon points="90.8 40 90.8 42.8 92.4 42.8 92.4 42.4 91.2 42.4 91.2 41.6 92.2 41.6 92.2 41.2 91.2 41.2 91.2 40.4 92.4 40.4 92.4 40 90.8 40"/>
      <polygon points="84.8 40 84.8 42.8 86.4 42.8 86.4 42.4 85.2 42.4 85.2 40 84.8 40"/>
      <path d="M63.8,40c-.7,0-1.4.6-1.4,1.4s.6,1.4,1.4,1.4,1.4-.6,1.4-1.4-.6-1.4-1.4-1.4ZM63.9,42.5c-.6,0-1-.5-1-1.1s.5-1.1,1-1.1,1,.5,1,1.1-.5,1.1-1,1.1Z"/>
      <path d="M84.9,45c0-.2.2-.4.5-.4.4,0,.6.2.6.2l.2-.3s-.3-.3-.8-.3-.9.3-.9.8c0,.8,1.3.7,1.3,1.3,0,.3-.2.4-.5.4-.4,0-.7-.3-.7-.3l-.2.3s.3.4.9.4c.5,0,.9-.4.9-.8,0-.9-1.3-.8-1.3-1.3h0Z"/>
      <path d="M83.3,44.2h-.4l-1,2.8h.4l.3-.8h1l.3.8h.4l-1-2.8ZM82.6,45.9l.3-.9c0-.1.1-.4.1-.4,0,0,.1.2.1.4l.3.9h-.8Z"/>
      <path d="M92,44.2h-.9v2.8h.9c.8,0,1.4-.5,1.4-1.4s-.5-1.4-1.4-1.4ZM92,46.7h-.5v-2.1h.5c.6,0,1,.4,1,1,0,.7-.4,1.1-1,1.1Z"/>
    </g>
  </g>
</svg>