<?xml version="1.0" encoding="UTF-8"?>
<svg id="Capa_2" data-name="Capa 2" xmlns="http://www.w3.org/2000/svg" viewBox="0 0 340 264.44">
  <defs>
    <style>
      .cls-1 {
        fill: #ff7070;
        fill-rule: evenodd;
      }
    </style>
  </defs>
  <g id="Capa_1-2" data-name="Capa 1">
    <path class="cls-1" d="M18.89,0C8.46,0,0,8.46,0,18.89s8.46,18.89,18.89,18.89h302.22c10.43,0,18.89-8.46,18.89-18.89S331.54,0,321.11,0H18.89ZM75.56,132.22c0-10.43,8.46-18.89,18.89-18.89h226.67c10.43,0,18.89,8.46,18.89,18.89s-8.46,18.89-18.89,18.89H94.44c-10.43,0-18.89-8.46-18.89-18.89ZM188.89,245.56c0-10.43,8.46-18.89,18.89-18.89h113.33c10.43,0,18.89,8.46,18.89,18.89s-8.46,18.89-18.89,18.89h-113.33c-10.43,0-18.89-8.46-18.89-18.89Z"/>
  </g>
</svg>