<?xml version="1.0" encoding="UTF-8"?>
<svg id="Capa_2" data-name="Capa 2" xmlns="http://www.w3.org/2000/svg" viewBox="0 0 236.94 87.22">
  <defs>
    <style>
      .cls-1 {
        fill: none;
        stroke: #ff7070;
        stroke-miterlimit: 10;
        stroke-width: 3px;
      }

      .cls-2 {
        fill: #ff7070;
      }
    </style>
  </defs>
  <g id="Capa_1-2" data-name="Capa 1">
    <ellipse class="cls-1" cx="118.47" cy="43.61" rx="116.97" ry="42.11"/>
    <g>
      <path class="cls-2" d="M40.39,28.64h18.38v3.51h-14.54v9.24h13.21v3.51h-13.21v10.18h14.54v3.51h-18.38v-29.93Z"/>
      <path class="cls-2" d="M65.62,28.64h7.23l11.59,29.07v-29.07h3.76v29.93h-7.48l-11.33-28.86v28.86h-3.76v-29.93Z"/>
      <path class="cls-2" d="M93.76,28.64h4.1l8.29,28.86,8.29-28.86h4.1l-8.81,29.93h-7.18l-8.81-29.93Z"/>
      <path class="cls-2" d="M122.83,55.02h6.24v-22.83h-6.24v-3.55h16.33v3.55h-6.24v22.83h6.24v3.55h-16.33v-3.55Z"/>
      <path class="cls-2" d="M162.47,50.83h-12.57l-2.31,7.74h-4.15l9.32-29.93h6.93l9.23,29.93h-4.15l-2.31-7.74ZM161.44,47.41l-5.26-17.7-5.26,17.7h10.52Z"/>
      <path class="cls-2" d="M174.48,28.64h11.42c5.56,0,9.06,2.95,9.06,8.04,0,5.64-3.51,8.25-9.06,8.25h-6.46l17.1,13.64h-6.11l-12.19-9.96v9.96h-3.76v-29.93ZM185.68,41.43c3.21,0,5.39-1.11,5.39-4.7s-2.18-4.66-5.39-4.66h-7.44v9.36h7.44Z"/>
    </g>
  </g>
</svg>