<?xml version="1.0" encoding="UTF-8"?>
<svg id="Capa_2" data-name="Capa 2" xmlns="http://www.w3.org/2000/svg" viewBox="0 0 250 90">
  <defs>
    <style>
      .cls-1 {
        fill: #ff7070;
      }

      .cls-2 {
        fill: #0f0f0f;
      }
    </style>
  </defs>
  <g id="Capa_1-2" data-name="Capa 1">
    <g>
      <g>
        <path class="cls-1" d="M125,88c-33.16,0-64.31-4.64-87.71-13.06C14.86,66.86,2,55.95,2,45S14.86,23.14,37.29,15.06C60.69,6.64,91.84,2,125,2s64.31,4.64,87.71,13.06c22.43,8.07,35.29,18.99,35.29,29.94s-12.86,21.86-35.29,29.94c-23.4,8.42-54.55,13.06-87.71,13.06Z"/>
        <path class="cls-1" d="M125,4c32.94,0,63.85,4.6,87.03,12.94,21.59,7.77,33.97,18,33.97,28.06s-12.38,20.29-33.97,28.06c-23.19,8.35-54.09,12.94-87.03,12.94s-63.85-4.6-87.03-12.94c-21.59-7.77-33.97-18-33.97-28.06s12.38-20.29,33.97-28.06c23.19-8.35,54.09-12.94,87.03-12.94M125,0C55.96,0,0,20.15,0,45s55.96,45,125,45,125-20.15,125-45S194.04,0,125,0h0Z"/>
      </g>
      <g>
        <path class="cls-2" d="M46.26,33.51h-8.86v-3.57h21.59v3.57h-8.86v26.54h-3.87v-26.54Z"/>
        <path class="cls-2" d="M63.51,56.48h6.28v-22.97h-6.28v-3.57h16.43v3.57h-6.28v22.97h6.28v3.57h-16.43v-3.57Z"/>
        <path class="cls-2" d="M85.53,47.58v-5.16c0-8.22,4.3-12.86,11.87-12.86s11.18,4.26,11.7,10.84h-3.91c-.47-4.17-2.49-7.18-7.79-7.18-5.81,0-8,3.57-8,9.21v5.16c0,5.63,2.19,9.21,8,9.21,5.16,0,7.31-2.84,7.7-6.84h3.91c-.56,6.41-4.52,10.5-11.61,10.5-7.57,0-11.87-4.65-11.87-12.86Z"/>
        <path class="cls-2" d="M119.77,48.61v11.44h-3.79v-30.11h3.79v10.97l12.22-10.97h5.16l-16.3,14.67,16.73,15.44h-5.55l-12.26-11.44Z"/>
        <path class="cls-2" d="M142.1,29.94h18.5v3.53h-14.62v9.29h13.29v3.53h-13.29v10.24h14.62v3.53h-18.5v-30.11Z"/>
        <path class="cls-2" d="M173.54,33.51h-8.86v-3.57h21.59v3.57h-8.86v26.54h-3.87v-26.54Z"/>
        <path class="cls-2" d="M189.93,51.02h3.83c.21,3.66,2.41,5.94,7.14,5.94,4.39,0,6.93-1.72,6.93-5.16,0-2.92-1.68-4.22-4.95-4.9l-4.39-.95c-4.77-1.03-7.53-3.53-7.53-8.13,0-4.86,3.74-8.26,9.98-8.26s10.24,3.61,10.28,8.95h-3.83c-.17-3.27-2.32-5.42-6.54-5.42-3.57,0-6.02,1.55-6.02,4.73,0,2.45,1.51,3.74,4.69,4.47l4.09.95c5.16,1.2,8.13,3.61,8.13,8.56,0,5.38-4.3,8.65-10.84,8.65-7.31,0-10.8-3.74-10.97-9.42Z"/>
      </g>
    </g>
  </g>
</svg>