<?xml version="1.0" encoding="UTF-8"?>
<svg id="Capa_2" data-name="Capa 2" xmlns="http://www.w3.org/2000/svg" viewBox="0 0 305.98 107.45">
  <defs>
    <style>
      .cls-1 {
        fill: #1a171a;
      }
    </style>
  </defs>
  <g id="Capa_1-2" data-name="Capa 1">
    <g>
      <path class="cls-1" d="M0,24.43h23.6v59.14H0V24.43ZM0,0h23.6v16.66H0V0Z"/>
      <path class="cls-1" d="M36.1,24.43h21.38v9.16c5.28-7.22,11.11-11.11,19.99-11.11,15.55,0,23.05,9.16,23.05,25.54v35.54h-23.6v-31.38c0-5.83-1.67-11.11-8.33-11.11-7.22,0-9.16,4.72-9.16,12.22v30.26h-23.6V24.43h.28Z"/>
      <path class="cls-1" d="M123.56,92.46c0,5-.56,14.99-15.27,14.99-1.39,0-2.78,0-4.16-.28v-8.61h1.94c5.83,0,7.22-.56,7.22-7.22V24.71h10v67.75h.28ZM123.56,13.88h-10V2.5h10v11.38Z"/>
      <path class="cls-1" d="M177.15,83.58v-8.61l-.28-.28c-4.16,6.94-9.16,10.55-18.88,10.55-8.61,0-19.16-4.16-19.16-18.33V24.43h10v39.15c0,9.72,5,13.05,11.38,13.05,12.49,0,16.38-11.11,16.38-19.71V24.43h10v59.14h-9.44Z"/>
      <polygon class="cls-1" points="238.79 24.43 249.62 24.43 227.12 83.58 216.57 83.58 194.92 24.43 206.3 24.43 221.85 72.75 222.13 72.75 238.79 24.43"/>
      <path class="cls-1" d="M305.15,64.97c-.28,2.78-3.05,11.11-10.55,16.1-2.78,1.67-6.66,4.16-16.1,4.16-16.66,0-26.38-12.49-26.38-29.71,0-18.33,8.89-33.04,28.32-33.04,16.94,0,25.54,13.61,25.54,34.43h-43.04c0,12.22,5.83,19.44,17.21,19.44,9.44,0,14.99-7.22,15.27-11.66h9.72v.28ZM295.71,49.42c-.56-9.16-4.44-17.77-16.38-17.77-9.16,0-16.38,8.61-16.38,17.77h32.76Z"/>
    </g>
  </g>
</svg>