<?xml version="1.0" encoding="UTF-8"?>
<svg id="Capa_2" data-name="Capa 2" xmlns="http://www.w3.org/2000/svg" viewBox="0 0 157.08 28.01">
  <g id="firma">
    <g>
      <rect x="29.24" y="0" width=".5" height="28.01"/>
      <g>
        <path d="M56.54,3.43h2.71v20.25h-2.91V7.92l-6.23,7.83h-.54l-6.3-7.83v15.76h-2.9V3.43h2.74l6.73,8.32,6.69-8.32Z"/>
        <path d="M71.56,3.31h2.04l9.08,20.37h-2.97l-2.7-6h-8.64l-2.53,6h-2.98l8.7-20.37ZM75.82,15.1l-3.27-7.33-3.03,7.33h6.3Z"/>
        <path d="M86.41,23.65V3.43h6.83c2.75,0,4.93.41,6.54,1.24,1.61.83,2.88,2.04,3.83,3.65.95,1.6,1.42,3.35,1.42,5.25,0,1.35-.26,2.65-.78,3.88-.52,1.24-1.27,2.32-2.23,3.26-.98.97-2.13,1.7-3.44,2.19-.76.3-1.46.5-2.1.6-.64.1-1.86.15-3.65.15h-6.41ZM92.93,6.01h-3.62v15.06h3.71c1.45,0,2.58-.1,3.38-.3.8-.2,1.47-.45,2.01-.75.54-.3,1.03-.68,1.47-1.12,1.43-1.45,2.15-3.28,2.15-5.49s-.73-3.95-2.2-5.32c-.54-.51-1.16-.93-1.86-1.26-.7-.33-1.37-.55-1.99-.65-.63-.11-1.64-.16-3.03-.16Z"/>
        <path d="M110.21,23.68V3.43h5.07c2.05,0,3.67.51,4.88,1.52,1.2,1.01,1.8,2.39,1.8,4.12,0,1.18-.29,2.2-.88,3.06-.59.86-1.44,1.5-2.54,1.93.65.43,1.28,1.01,1.9,1.74.62.73,1.49,2.02,2.61,3.84.71,1.15,1.27,2.01,1.7,2.59l1.07,1.45h-3.45l-.88-1.33s-.09-.13-.17-.25l-.56-.8-.9-1.48-.97-1.58c-.6-.83-1.15-1.49-1.64-1.99-.5-.49-.95-.85-1.35-1.06-.4-.22-1.08-.33-2.03-.33h-.75v8.81h-2.9ZM113.98,5.89h-.87v6.39h1.1c1.47,0,2.48-.13,3.02-.38.55-.25.97-.63,1.28-1.14.3-.51.46-1.08.46-1.73s-.17-1.21-.51-1.73-.81-.88-1.43-1.09c-.61-.21-1.63-.32-3.05-.32Z"/>
        <path d="M129.57,3.43h2.9v20.25h-2.9V3.43Z"/>
        <path d="M138.47,23.65V3.43h6.83c2.75,0,4.93.41,6.54,1.24,1.6.83,2.88,2.04,3.83,3.65s1.42,3.35,1.42,5.25c0,1.35-.26,2.65-.78,3.88-.52,1.24-1.27,2.32-2.23,3.26-.99.97-2.13,1.7-3.44,2.19-.76.3-1.46.5-2.1.6-.64.1-1.86.15-3.65.15h-6.41ZM145,6.01h-3.62v15.06h3.71c1.45,0,2.57-.1,3.38-.3.8-.2,1.47-.45,2.01-.75.54-.3,1.03-.68,1.47-1.12,1.43-1.45,2.14-3.28,2.14-5.49s-.73-3.95-2.2-5.32c-.54-.51-1.16-.93-1.86-1.26-.7-.33-1.37-.55-1.99-.65-.63-.11-1.64-.16-3.03-.16Z"/>
      </g>
      <g>
        <path d="M18.51,4.49H1.71c-.22,0-.39.18-.39.39s.18.39.39.39h16.8c.22,0,.39-.18.39-.39s-.18-.39-.39-.39"/>
        <path d="M18.51,6.48H1.71c-.22,0-.39.18-.39.39s.18.39.39.39h16.8c.22,0,.39-.18.39-.39s-.18-.39-.39-.39"/>
        <path d="M1.71,6.27h.87c.22,0,.39-.17.39-.39s-.18-.39-.39-.39h-.87c-.22,0-.39.18-.39.39s.18.39.39.39"/>
        <path d="M18.51,5.49h-.87c-.22,0-.39.18-.39.39s.18.39.39.39h.87c.22,0,.39-.17.39-.39s-.18-.39-.39-.39"/>
        <path d="M10.98,6.27c.22,0,.39-.17.39-.39s-.18-.39-.39-.39h-1.75c-.22,0-.39.18-.39.39s.18.39.39.39h1.75Z"/>
        <polygon points="5.91 5.42 4.62 5.86 5.91 6.31 7.2 5.86 5.91 5.42"/>
        <polygon points="14.31 5.42 13.02 5.86 14.31 6.31 15.6 5.86 14.31 5.42"/>
        <path d="M16.84,5.86c0-.24-.19-.43-.43-.43s-.43.19-.43.43.19.43.43.43.43-.19.43-.43"/>
        <path d="M12.62,5.86c0-.24-.19-.43-.43-.43s-.43.19-.43.43.19.43.43.43.43-.19.43-.43"/>
        <path d="M8.45,5.86c0-.24-.19-.43-.43-.43s-.43.19-.43.43.19.43.43.43.43-.19.43-.43"/>
        <path d="M4.22,5.86c0-.24-.19-.43-.43-.43s-.43.19-.43.43.19.43.43.43.43-.19.43-.43"/>
        <path d="M19.35,0c-.66,0-1.05.56-1.15.73-.05-.01-.25-.04-.31-.04-.25,0-.38.02-.47.09.17.11.39.27.43.66-.38-.05-.54-.26-.65-.43-.06.09-.09.22-.09.47,0,.05,0,.12,0,.17-.28.03-.55.19-.67.35.12.16.39.33.67.35,0,.05,0,.12,0,.17,0,.25.02.38.09.47.12-.19.31-.44.8-.44h.07s0,.06,0,.09c0,.43-.2.83-.73.83-.35,0-.54-.26-.62-.42.06-.08.09-.18.09-.29,0-.27-.22-.49-.49-.49s-.49.22-.49.49c0,.11.03.21.09.29-.08.16-.27.42-.62.42-.53,0-.73-.39-.73-.83,0-.03,0-.06,0-.09h.07c.49,0,.68.25.8.44.06-.09.09-.22.09-.47,0-.05,0-.12,0-.17.28-.03.55-.19.67-.35-.12-.16-.39-.33-.67-.35,0-.05,0-.12,0-.17,0-.25-.02-.38-.09-.47-.11.17-.27.39-.65.43.04-.39.26-.54.43-.66-.09-.06-.22-.09-.47-.09-.05,0-.12,0-.17,0-.03-.28-.19-.55-.35-.67-.16.12-.33.39-.35.67-.05,0-.12,0-.17,0-.25,0-.38.02-.47.09.17.11.39.27.43.66-.38-.05-.54-.26-.65-.43-.06.09-.09.22-.09.47,0,.05,0,.12,0,.17-.28.03-.56.19-.67.35.12.16.39.33.67.35,0,.05,0,.12,0,.17,0,.25.02.38.09.47.12-.19.31-.44.8-.44h.07s0,.06,0,.09c0,.43-.2.83-.73.83-.35,0-.54-.26-.62-.42.06-.08.09-.18.09-.29,0-.27-.22-.49-.49-.49-.03,0-.07,0-.1.01-.22.05-.39.24-.39.48,0,.11.03.21.09.29-.08.16-.27.42-.62.42-.53,0-.73-.39-.73-.83,0-.03,0-.06,0-.09h.07c.49,0,.68.25.8.44.06-.09.09-.22.09-.47,0-.05,0-.12,0-.17.28-.03.56-.19.67-.35-.12-.16-.39-.33-.67-.35,0-.05,0-.12,0-.17,0-.25-.02-.38-.09-.47-.11.17-.27.39-.65.43.04-.39.26-.54.43-.66-.09-.06-.22-.09-.47-.09-.05,0-.12,0-.17,0-.03-.28-.19-.55-.35-.67-.16.12-.33.39-.35.67-.05,0-.12,0-.17,0-.25,0-.38.02-.47.09.17.11.39.27.43.66-.38-.05-.54-.26-.65-.43-.06.09-.09.22-.09.47,0,.05,0,.12,0,.17-.28.03-.56.19-.67.35.12.16.39.33.67.35,0,.05,0,.12,0,.17,0,.25.02.38.09.47.13-.19.31-.44.8-.44h.07s0,.06,0,.09c0,.43-.2.83-.73.83-.35,0-.54-.26-.62-.42.06-.08.09-.18.09-.28,0-.27-.22-.49-.49-.49s-.49.22-.49.49c0,.11.03.21.09.29-.08.16-.27.42-.62.42-.53,0-.73-.39-.73-.83,0-.03,0-.06,0-.09h.07c.49,0,.68.25.8.44.06-.09.09-.22.09-.47,0-.05,0-.12,0-.17.28-.03.55-.19.67-.35-.12-.16-.39-.33-.67-.35,0-.05,0-.12,0-.17,0-.25-.02-.38-.09-.47-.11.17-.27.39-.65.43.04-.39.26-.54.43-.66-.09-.06-.22-.09-.47-.09-.05,0-.12,0-.17,0-.03-.28-.19-.55-.35-.67-.16.12-.33.39-.35.67-.05,0-.12,0-.17,0-.25,0-.38.02-.47.09.17.11.39.27.43.66-.38-.05-.54-.26-.65-.43-.06.09-.09.22-.09.47,0,.05,0,.12,0,.17-.28.03-.55.19-.67.35.12.16.39.33.67.35,0,.05,0,.12,0,.17,0,.25.02.38.09.47.12-.19.31-.44.8-.44h.07s0,.06,0,.09c0,.43-.2.83-.73.83-.35,0-.54-.26-.62-.42.06-.08.09-.18.09-.29,0-.27-.22-.49-.49-.49-.14,0-.26.06-.35.14-.09.09-.14.21-.14.35,0,.11.03.21.09.29-.08.16-.27.42-.62.42-.53,0-.73-.39-.73-.83,0-.03,0-.06,0-.09h.07c.49,0,.68.25.8.44.06-.09.09-.22.09-.47,0-.05,0-.12,0-.17.28-.03.55-.19.67-.35-.12-.16-.39-.33-.67-.35,0-.05,0-.12,0-.17,0-.25-.02-.38-.09-.47-.11.17-.27.39-.65.43.04-.39.26-.54.43-.66-.09-.06-.22-.09-.47-.09-.06,0-.27.03-.31.04-.1-.17-.48-.73-1.15-.73C.45,0,.06.21,0,.26c.22,0,.58.02.87.31.42.42.45.75.45,1.89,0,1.22.63,1.81,1.52,1.81.52,0,1.04-.4,1.04-.4,0,0,.53.4,1.04.4.55,0,1.03-.42,1.03-.42,0,0,.48.42,1.03.42.52,0,1.04-.4,1.04-.4,0,0,.53.4,1.04.4.55,0,1.03-.42,1.03-.42,0,0,.48.42,1.03.42.52,0,1.04-.4,1.04-.4,0,0,.53.4,1.04.4.55,0,1.03-.42,1.03-.42,0,0,.48.42,1.03.42.52,0,1.04-.4,1.04-.4,0,0,.53.4,1.04.4.9,0,1.52-.6,1.52-1.81,0-1.14.03-1.48.45-1.89.29-.29.65-.31.87-.31-.06-.06-.45-.26-.87-.26"/>
        <path d="M1.59,7.54v13.97c0,4.14,2.88,6.5,8.52,6.5s8.52-2.36,8.52-6.5V7.54H1.59ZM9.31,8.38l.56.06.23-.52.23.52.56-.06-.33.46.33.46-.56-.06-.23.52-.23-.52-.56.06.34-.46-.34-.46ZM2.12,8.38l.56.06.23-.52.23.52.56-.06-.34.46.34.46-.56-.06-.23.52-.23-.52-.56.06.34-.46-.34-.46ZM2.12,15.24l.56.06.23-.52.23.52.56-.06-.34.46.34.46-.56-.06-.23.52-.23-.52-.56.06.34-.46-.34-.46ZM3.81,23.03l-.56-.06-.23.52-.23-.52-.56.06.34-.46-.34-.46.56.06.23-.52.23.52.56-.06-.33.46.33.46ZM10.11,25.25c-3.26,0-4.72-.97-5.36-2.04h10.72c-.64,1.07-2.1,2.04-5.36,2.04M11.94,21.68l.58.68-.3.1c-.05.02-.12.07-.16.12l-.07.09h-.67c-.38,0-.69-.31-.69-.69v-3.21l.4.8c.05.1.18.16.28.13l.19-.05v.16c0,.19.01.36.03.51.09.68.36.91.49.98l-.1.14c-.05.07-.04.18.01.24M15.97,21.22c0,.4-.04.92-.24,1.45h-1.35l-.45-1.03c.19-.2.3-.46.3-.75,0-.2-.05-.39-.15-.55l-.53-.91-.63-1.8-.05-.73.14-.08c.1-.06.15-.19.11-.3l-.04-.13c-.04-.11-.16-.18-.27-.16l-.21.04-.3-.24s-.13-.06-.18-.04l-.19.04-.43-.34s-.11-.03-.14.02l-.25.35c-.05.07-.05.19,0,.26l.38.62v1.11h-.27c-.15,0-.27-.16-.27-.36v-.35c0-.06-.03-.14-.07-.18l-.25-.25v-1.42c1.8-.18,3.17-1.17,3.17-2.36,0-1.32-1.68-2.39-3.75-2.39s-3.75,1.07-3.75,2.39c0,1.19,1.38,2.18,3.17,2.36v6.5c0,.38-.31.69-.69.69h-4.29c-.2-.53-.24-1.05-.24-1.45v-11.08h11.72v11.08ZM17.99,23.03l-.56-.06-.23.52-.23-.52-.56.06.34-.46-.34-.46.56.06.23-.52.23.52.56-.06-.34.46.34.46ZM18.09,16.16l-.56-.06-.23.52-.23-.52-.56.06.34-.46-.34-.46.56.06.23-.52.23.52.56-.06-.34.46.34.46ZM18.09,9.29l-.56-.06-.23.52-.23-.52-.56.06.34-.46-.34-.46.56.06.23-.52.23.52.56-.06-.34.46.34.46Z"/>
      </g>
    </g>
  </g>
</svg>