<?xml version="1.0" encoding="UTF-8"?>
<svg id="Capa_2" data-name="Capa 2" xmlns="http://www.w3.org/2000/svg" viewBox="0 0 1169.67 484.03">
  <defs>
    <style>
      .cls-1 {
        fill: #010101;
      }

      .cls-2 {
        fill: #020202;
      }
    </style>
  </defs>
  <g id="Layer_1" data-name="Layer 1">
    <path class="cls-1" d="M164.41,186.34c3.46-16.3,6.89-32.35,10.36-48.56h64.44v196.14h-43.95c1.5-50.06,2.99-99.93,4.48-149.81-.3-.04-.61-.07-.91-.11-9.63,45.66-19.27,91.33-28.9,136.99-.16.02-.32.03-.48.05-1.26-5.88-2.55-11.75-3.79-17.63-4.07-19.32-8.24-38.62-12.09-57.98-.62-3.1-.19-6.57.45-9.73,3.33-16.39,6.89-32.74,10.4-49.36Z"/>
    <path class="cls-1" d="M954.87,137.64c12.14,0,24.02-.54,35.71,2.25,19.09,4.57,30.44,16.76,33.37,36.18,1.69,11.19,1.88,22.37-.52,33.51-2.48,11.5-8.98,19.92-19.28,25.47-.97.52-1.93,1.04-3.06,1.64.42.32.63.57.89.66,15.32,5.06,21.17,12.69,21.94,28.72.67,14.13,1.23,28.26,1.96,42.39.24,4.67.5,9.39,1.42,13.95.55,2.73,2.39,5.19,3.62,7.78.53,1.11,1,2.25,1.72,3.9-2.77,0-4.82,0-6.87,0-13.75,0-27.5-.05-41.25.06-2.17.02-3.38-.56-3.63-2.72-.65-5.45-1.64-10.89-1.85-16.36-.45-11.85-.32-23.73-.79-35.58-.16-4-1-8.07-2.18-11.91-2.34-7.56-7.17-10.86-15.11-11.01-2.17-.04-4.34,0-6.9,0v-35.43c2.66,0,5.13,0,7.59,0,9.11,0,14.19-3.71,16.47-12.56,2.01-7.78,2.01-15.69.08-23.49-1.7-6.85-6.51-10.41-13.33-11.33-3.48-.47-6.99-.64-10.81-.98v-16.54c0-5.21-.03-10.42.02-15.63,0-.98.33-1.96.79-2.99Z"/>
    <path class="cls-1" d="M709,333.31c-8.37.39-16.46.74-24.8,1.1v-35.44c2.01-.19,4.06-.27,6.08-.58,11.72-1.79,16.72-7.16,17.28-19.06.31-6.64.07-13.3.07-19.96,0-20.93.03-41.87-.03-62.8,0-2.9-.24-5.83-.72-8.69-1.49-9.02-6.53-13.2-16.68-14.1-1.96-.17-3.92-.31-6.04-.48v-35.19c5.06,0,10.17-.52,15.14.12,8.32,1.07,16.77,2.12,24.76,4.54,16.83,5.08,25.89,17.32,28.5,34.39.88,5.73,1.25,11.59,1.28,17.39.12,29.58.25,59.16-.09,88.73-.08,6.87-1.19,13.96-3.21,20.52-4.92,15.96-17.07,24.18-32.66,28.01-2.81.69-5.73.98-8.87,1.5Z"/>
    <path class="cls-1" d="M1163.44,161.23c4.05,8.29,6.06,16.93,6.11,25.82.16,30.83.18,61.66-.11,92.49-.11,11.27-2.09,22.35-7.1,32.65-6.99,14.39-19.15,21.73-34.32,24.66-5.78,1.11-11.69,1.51-17.85,2.27v-35.85c10.77-2.73,12.08-11.61,13.06-20.61.31-2.89.24-5.82.23-8.74-.02-28.12-.02-56.24-.15-84.37-.01-3.19-.54-6.44-1.29-9.55-1.59-6.61-5.07-9.88-11.86-11.57v-35.09c18.06-.97,42.72,6.19,53.28,27.88Z"/>
    <path class="cls-1" d="M1044.7,235.63c0-15.63-.14-30.94.05-46.25.14-11.39,2.44-22.33,8.66-32.11,8.56-13.47,21.49-20.1,36.72-22.88,4.26-.78,8.6-1.09,13.09-1.64v35.86c-10.47,3.41-12.03,12.48-12.13,21.54-.34,29.89-.2,59.79-.04,89.69.02,3.89.93,7.86,1.99,11.63,1.5,5.32,4.55,9.56,10.22,11.22v35.68c-31.34-.08-50.36-13.61-56-41.08-1.6-7.79-2.2-15.87-2.46-23.84-.4-12.49-.11-25-.11-37.81Z"/>
    <path class="cls-1" d="M631.26,307.53v-169.79h46.03v196.09h-46.03v-26.3Z"/>
    <path class="cls-1" d="M813.86,137.59h4.28v196.35h-45.25v-196.35h40.97Z"/>
    <path d="M901.46,333.76c-.26-1.26-.33-2.3-.33-3.34,0-63.11,0-126.23,0-189.34v-3.29h46.1v196.2c-15.23,0-30.38,0-45.77-.23Z"/>
    <path class="cls-1" d="M508.91,193.23c4.08-18.62,8.12-36.97,12.2-55.47h17.75c1.13,7.67,2.27,15.36,3.41,23.06,1.14,7.72,2.83,15.4,3.26,23.16.34,6.02-.58,12.17-1.45,18.19-2.82,19.54-5.87,39.05-8.88,58.88h21.85c1.72,11.61,3.41,22.97,5.14,34.61h-32c-1.88,12.88-3.73,25.58-5.58,38.32h-46.39c10.25-46.94,20.45-93.72,30.7-140.75Z"/>
    <path class="cls-1" d="M261.94,290.73c4.59-20.96,9.15-41.66,13.68-62.37,6.45-29.43,12.91-58.86,19.26-88.32.42-1.95,1.05-2.56,3.01-2.5,4.99.14,9.98.05,15.24.05,1.05,7,2.1,13.85,3.11,20.72,1.33,9.05,3.11,18.08,3.77,27.18.4,5.48-.78,11.12-1.59,16.63-2.87,19.54-5.89,39.06-8.9,58.9h21.84c1.73,11.61,3.42,22.98,5.14,34.62h-31.99c-1.87,12.88-3.72,25.57-5.58,38.34h-46.39c3.14-14.41,6.24-28.7,9.39-43.25Z"/>
    <path class="cls-1" d="M106.84.05h68.03c7.01,32.7,14.01,65.34,21.09,98.36-1.4,0-2.41,0-3.42,0-23.95,0-47.89-.05-71.84.07-2.93.01-4.21-.54-4.88-3.75-6.41-30.7-13.05-61.35-19.62-92.02-.17-.79-.26-1.6-.43-2.65h11.06Z"/>
    <path class="cls-1" d="M554.5,208.74c-3.49-23.8-6.95-47.33-10.44-71.03h32.75c14.18,65.28,28.37,130.61,42.63,196.25-.82.05-1.49.13-2.16.13-13.85,0-27.71-.05-41.56.06-2.33.02-2.89-.74-3.2-2.94-3.16-22.02-6.46-44.03-9.72-66.04-2.77-18.72-5.52-37.44-8.3-56.44Z"/>
    <path class="cls-1" d="M367.53,213.13c7.31,33.76,14.6,67.25,21.88,100.75,1.43,6.59,2.86,13.17,4.34,20h-46.44c-9.62-65.24-19.24-130.51-28.9-196.05h32.74c5.44,24.95,10.9,49.99,16.39,75.3Z"/>
    <path class="cls-1" d="M517.58.05h12.92c7.03,32.76,14.01,65.32,21.09,98.36-1.31,0-2.3,0-3.3,0-24.26,0-48.52-.03-72.77.05-2.38,0-3.34-.55-3.86-3.05-6.63-31.4-13.41-62.76-20.15-94.14-.06-.3-.04-.62-.06-1.22h66.13Z"/>
    <path class="cls-1" d="M695.16.05h72.43c7.01,32.67,14,65.26,21.09,98.36h-3.59c-24.07,0-48.13-.04-72.2.06-2.67.01-3.63-.65-4.22-3.41-6.45-30.61-13.09-61.17-19.67-91.75-.22-1-.32-2.03-.51-3.25h6.66Z"/>
    <path class="cls-1" d="M308.63,70.79c1.96,9.19,3.85,18.13,5.81,27.36-.86.09-1.63.24-2.39.24-24.68.01-49.36-.03-74.04.07-2.31,0-2.95-.81-3.39-2.87-6.66-31.29-13.39-62.57-20.1-93.86-.1-.48-.06-1-.09-1.7.95,0,1.77,0,2.59,0,24.47,0,48.95.03,73.42-.05,2.25,0,3.15.5,3.65,2.89,4.72,22.57,9.63,45.1,14.54,67.9Z"/>
    <path class="cls-1" d="M648.87,98.4c-19.45,0-38.59,0-57.98,0-7.03-32.8-14.02-65.44-21.07-98.36,1.33,0,2.25,0,3.18,0,24.36,0,48.72.03,73.08-.05,2.25,0,3.13.5,3.64,2.9,6.69,31.69,13.53,63.36,20.44,95.5h-21.28Z"/>
    <path class="cls-1" d="M396.3,98.4c-14.25,0-28.2,0-42.48,0-7.02-32.74-14.01-65.39-21.05-98.23h79.23c6.99,32.59,13.98,65.18,21.07,98.23h-36.76Z"/>
    <path d="M91.04,160.22c3.31,15.82,6.96,31.31,9.63,46.97,1.35,7.93,1,16.16,1.26,24.25.81,26.2,1.59,52.39,2.27,78.6.2,7.87.03,15.76.03,23.85h-43.1v-196.14h25.1c1.58,7.39,3.16,14.8,4.8,22.47Z"/>
    <path d="M412.55,263.14v-79.38h46.03v150.16h-46.03v-70.78Z"/>
    <path class="cls-1" d="M141.19,212.51c5.86,27.91,11.69,55.57,17.51,83.22,2.65,12.6,5.3,25.19,8.01,38.03-.74.12-1.41.32-2.07.32-9.79.02-19.58-.02-29.37.05-1.72.01-2.5-.36-2.9-2.26-7.41-35.49-14.93-70.96-22.42-106.44-5.92-28.05-11.84-56.1-17.76-84.15-.23-1.1-.42-2.22-.66-3.53h33.89c5.23,24.77,10.48,49.64,15.76,74.76Z"/>
    <path class="cls-1" d="M826.64,92.2c-5.22-24.32-10.36-48.39-15.5-72.46-1.38-6.48-2.77-12.97-4.18-19.56h77.44v98.23c-9.67,0-19.23,0-28.79,0-7.91,0-15.83-.17-23.74.08-3.12.1-4.6-.81-4.75-3.9-.04-.72-.26-1.43-.48-2.4Z"/>
    <path class="cls-1" d="M72.2,74c1.76,8.17,3.44,16.09,5.16,24.22H0V.18h56.38c5.24,24.47,10.49,49.02,15.83,73.82Z"/>
    <path class="cls-1" d="M150.6,451.29c.65-22.55,1.31-44.8,1.96-67.04l-.52-.09c-6.39,30.25-12.78,60.5-19.37,91.7-1.17-5.33-2.17-9.8-3.12-14.29-2.54-11.99-5.47-23.93-7.38-36.02-.71-4.47.72-9.39,1.67-14,3.83-18.62,7.86-37.2,11.82-55.8.13-.59.42-1.15.63-1.72h42.3v129.59h-29.03c.34-10.68.69-21.35,1.04-32.33Z"/>
    <path class="cls-1" d="M403.8,176.97h-27.33v-39.21h119.14v39.21h-91.81Z"/>
    <path class="cls-1" d="M431.88,435.76c-3.43-3.77-7.88-3.09-12.2-3.28v-23.36c1.58,0,3.19.01,4.8,0,6.3-.06,9.95-2.63,11-8.77.7-4.14.84-8.52.34-12.68-.82-6.8-4.09-9.47-10.95-10.08-1.64-.15-3.3-.16-5.14-.25v-23.37c10.29-.14,20.56-.64,30.31,3.57,8.15,3.52,12.9,9.93,14.98,18.37,2.04,8.29,2.15,16.7.56,25.07-1.41,7.45-5.43,13.17-12.07,16.96-.79.45-1.56.92-2.87,1.7,1.04.29,1.56.41,2.06.58,8.25,2.88,12.56,8.74,13,17.51.57,11.22,1.2,22.43,1.82,33.64.21,3.77.62,7.47,3.43,10.42.35.37.28,1.13.44,1.89h-34.1c-.42-4.09-1.05-8.33-1.25-12.59-.43-9.03-.42-18.08-1.06-27.1-.19-2.74-1.92-5.37-3.1-8.23Z"/>
    <path class="cls-1" d="M357.69,477.76c-7.02,4.44-14.67,5.64-22.53,5.94-3.42.13-6.85.02-10.46.02v-23.1c1.08-.13,2.1-.25,3.12-.36,8.28-.9,11.82-4.55,12.16-12.94.2-4.99.05-9.99.05-14.98,0-12.18,0-24.36,0-36.54,0-.42,0-.83,0-1.25,0-12.96-2.31-15.56-15.33-17.08v-23.59c11.76.43,23.54.36,33.86,7.17,7.42,4.9,10.44,12.44,11.43,20.89.47,4.02.63,8.09.64,12.14.07,18.22.1,36.44-.03,54.66-.03,3.82-.49,7.68-1.2,11.44-1.39,7.37-5.21,13.27-11.72,17.58Z"/>
    <path class="cls-1" d="M613.96,394.43c0,18.95,0,37.59,0,56.23-.01,19.3-10.64,30.93-29.95,32.61-5.26.46-10.55.51-15.97.76v-23.31c1.57-.21,3.09-.41,4.61-.61,6.45-.85,9.95-4.22,10.56-10.7.38-4.12.32-8.29.32-12.44-.02-15.1.2-30.2-.26-45.29-.33-10.77-3-13.04-13.74-14.03-.4-.04-.81-.08-1.41-.13v-23.63c11.31.29,22.57.38,32.66,6.3,9.29,5.45,12.19,14.55,13.04,24.56.26,3.1.12,6.24.16,9.68Z"/>
    <path class="cls-2" d="M320.13,385.67v97.96h-30.44v-129.56h30.44v31.6Z"/>
    <path class="cls-2" d="M388.86,483.83h-4.17v-129.68h30.25v129.68c-8.55,0-17.16,0-26.08,0Z"/>
    <path class="cls-2" d="M513.83,370.04v113.6h-30.38v-129.53h30.38v15.94Z"/>
    <path class="cls-2" d="M563.74,460.69v22.94h-30.47v-129.59h30.47v106.65Z"/>
    <path class="cls-1" d="M220.94,467.29c-.82,5.6-1.58,10.93-2.35,16.39h-30.72c9.45-43.26,18.87-86.42,28.3-129.64h11.8c1.6,10.99,3.72,21.83,4.56,32.76.43,5.66-1.35,11.5-2.21,17.25-1.55,10.37-3.15,20.73-4.78,31.39h14.4c1.15,7.74,2.27,15.26,3.43,23.08-6.43,0-12.46.08-18.48-.04-2.05-.04-3.05.45-3.1,2.69-.04,1.96-.51,3.91-.86,6.13Z"/>
    <path class="cls-2" d="M266.47,416.04c4.95,22.68,9.84,45.1,14.76,67.66h-30.77c-6.37-43.09-12.74-86.23-19.15-129.6h21.74c4.44,20.51,8.9,41.1,13.42,61.94Z"/>
    <path class="cls-1" d="M83.3,381.06c4.25,15.01,4.89,30.14,5.13,45.35.3,19.02.95,38.04,1.45,57.24h-28.82v-129.61h16.61c1.85,8.91,3.71,17.83,5.63,27.02Z"/>
    <path class="cls-2" d="M107.11,477.94c-5.67-26.88-11.26-53.51-16.86-80.13-2.97-14.12-5.96-28.24-8.93-42.37-.08-.39-.01-.82-.01-1.39h22.25c9.1,43.2,18.19,86.36,27.31,129.66h-22.5c-.4-1.9-.79-3.71-1.25-5.77Z"/>
    <path class="cls-1" d="M828.19,169.98v-32.25h56.22v39.12h-56.22v-6.87Z"/>
    <path d="M878.92,334.09c-16.98,0-33.65,0-50.53,0v-39.18h55.97v39.18h-5.44Z"/>
    <path d="M829.6,213.03c16.73,0,33.16,0,49.77,0v39.36h-51.02c-.05-.67-.15-1.36-.15-2.04,0-11.55-.03-23.09.04-34.64,0-.89.69-1.78,1.36-2.68Z"/>
  </g>
</svg>