<?xml version="1.0" encoding="UTF-8"?>
<svg id="Capa_2" data-name="Capa 2" xmlns="http://www.w3.org/2000/svg" viewBox="0 0 190.5 47.4">
  <g id="Capa_1-2" data-name="Capa 1">
    <g>
      <path d="M3.5,20.2l-2.8-1c-.2-.1-.4-.2-.5-.3-.2-.1-.2-.3-.2-.6v-2.5c0-.3,0-.5.1-.6s.2-.2.5-.3l8.6-1.9h.2c.5,0,.9.3,1,.8l1,3.4c.3-.4.6-.8.9-1.1.3-.4.7-.7,1.1-1,.8-.6,1.6-1,2.6-1.3.9-.3,1.9-.4,2.8-.4h1.2c.3,0,.6.1.7.2.1.1.2.4.2.7v5.6c0,.3-.1.6-.2.7-.1.1-.4.2-.7.2h-.2c-.6,0-1.3,0-2,.1s-1.4.2-2,.4-1.3.5-1.8.8c-.6.4-1,.8-1.4,1.5-.1.2-.2.3-.3.5-.1.2-.1.4-.2.5-.1.4-.2.8-.2,1.2s-.1.8-.1,1.2v14.1l2.8,1c.2.1.4.2.5.3.1.1.1.3.1.6v2.4c0,.3-.1.6-.2.7,0,.1-.3.2-.7.2H1c-.3,0-.6-.1-.7-.2-.1-.1-.2-.3-.2-.7v-2.4c0-.3,0-.5.1-.6s.3-.2.5-.3l2.8-1v-20.9h0Z"/>
      <path d="M41.7,31.6h-1.6c-.6,0-1.2,0-1.9.1s-1.3.2-1.9.3c-.6.2-1.2.4-1.7.7s-1,.8-1.4,1.3c-.2.3-.4.7-.5,1.1-.2.5-.3,1.1-.3,1.7s.1,1.2.3,1.7c.2.6.5,1,.9,1.4.4.4.8.8,1.3,1s1.1.4,1.7.4c.5,0,1-.1,1.5-.2s.9-.3,1.3-.6c.4-.2.8-.5,1.2-.8.4-.3.7-.6,1.1-1v-7.1ZM52.5,42.1c.2.1.4.2.5.3.1.1.1.3.1.6v2.4c0,.2,0,.5-.1.6-.1.2-.2.3-.5.3l-7.9.8h-.8c-.3,0-.5-.1-.6-.2l-.3-.6-.7-2.2c-.4.4-.9.7-1.3,1.1s-.9.6-1.4.9c-.8.4-1.6.7-2.4.8-.8.2-1.7.2-2.5.2s-1.6-.1-2.4-.2-1.5-.4-2.3-.7c-.6-.3-1.2-.6-1.8-1.1-.6-.5-1.2-1-1.6-1.6s-.8-1.3-1.1-2-.5-1.4-.6-2.2c-.1-.8-.2-1.5-.2-2.3,0-.6,0-1.2.1-1.7.1-.6.2-1.2.3-1.7.2-.7.5-1.4.9-2.1.2-.3.4-.6.6-.8.2-.3.4-.5.6-.8.4-.4.9-.8,1.3-1.2.5-.3,1-.6,1.5-.9.5-.3,1-.5,1.6-.7.5-.2,1.1-.3,1.7-.5.7-.2,1.4-.3,2.1-.4s1.4-.2,2.1-.2c.7-.1,1.4-.1,2.2-.1.7,0,1.4,0,2.1-.1v-2c0-.4,0-.9-.1-1.4,0-.5-.1-.9-.3-1.3-.1-.4-.4-.8-.7-1.1s-.8-.6-1.3-.8c-.4-.1-.8-.2-1.2-.3-.4,0-.8-.1-1.2-.1-.9,0-1.9.1-2.8.3s-1.8.4-2.7.7c-.3.1-.6.2-.8.3-.3.1-.5.2-.8.3-.2.1-.3.1-.5.2-.2.1-.4.1-.5.1-.2,0-.4-.1-.5-.2-.1-.1-.2-.3-.2-.5l-1.4-4.1c0-.1-.1-.2-.1-.2v-.2c0-.2,0-.3.1-.4.1-.1.2-.2.3-.3.1-.1.3-.2.4-.3.2-.1.3-.1.4-.2l.4-.2c.1,0,.2-.1.2-.1.1,0,.2-.1.3-.1s.2-.1.2-.1c.1,0,.2-.1.3-.1,1.4-.5,2.8-.8,4.2-1,1.4-.2,2.9-.3,4.4-.3.8,0,1.7,0,2.5.1s1.7.2,2.5.4c.8.2,1.6.5,2.3.9s1.4.9,2,1.6c.4.4.8.9,1.1,1.4.2.3.3.6.5.9.1.3.2.6.3.9.2.7.3,1.4.4,2.1,0,.7.1,1.4.1,2.1v17.9l3,1.4Z"/>
      <path d="M77.2,20.5c-.4-.2-.8-.4-1.2-.5-.4-.1-.8-.3-1.1-.4-.4-.1-.8-.2-1.2-.2s-.8-.1-1.3-.1-.9,0-1.4.1c-.5,0-.9.2-1.4.3-.4.2-.8.4-1.2.7-.3.3-.6.6-.8,1s-.4.8-.6,1.2c-.2.4-.3.8-.4,1.3-.1.5-.2.9-.2,1.3s-.1.9-.1,1.3c0,.3,0,.6-.1.9v5.1c0,.2,0,.5.1.8,0,.2,0,.5.1.8.1.6.1,1.2.2,1.9.1.7.3,1.3.5,1.9.2.6.5,1.2.9,1.6.4.5.9.9,1.5,1.1.4.1.8.2,1.1.3.4,0,.8.1,1.2.1.6,0,1.1,0,1.7-.1.6-.1,1.1-.3,1.6-.5.4-.2.8-.4,1.1-.7s.7-.6,1-.9v-18.3ZM88.5,42.1c.3.1.4.2.5.3.1.1.1.3.1.6v2.4c0,.3,0,.5-.1.6-.1.2-.3.3-.5.3l-7.9.8h-.8c-.3,0-.5-.1-.6-.2-.1-.2-.2-.4-.3-.6l-.7-2.3c-.9.6-1.7,1.2-2.7,1.8-.9.5-1.9.9-3,1.2-.6.1-1.2.3-1.7.3-.6.1-1.2.1-1.8.1-.7,0-1.4,0-2-.1-.7-.1-1.3-.2-2-.5-.8-.3-1.6-.8-2.2-1.4-.7-.6-1.2-1.2-1.8-2-.5-.7-.9-1.4-1.3-2.2s-.7-1.6-.9-2.4c-.2-.8-.4-1.6-.6-2.5-.1-.8-.2-1.7-.3-2.5,0-.6-.1-1.1-.1-1.7v-3.4c0-.6.1-1.1.1-1.7,0-.5.1-1,.1-1.5.1-.5.1-1,.2-1.5.1-.8.3-1.5.6-2.3.2-.8.5-1.5.9-2.2.3-.7.7-1.4,1.2-2.1.4-.7.9-1.3,1.5-1.8.6-.6,1.2-1.1,1.8-1.5.7-.4,1.4-.8,2.2-1,.7-.2,1.3-.4,2-.4.7-.1,1.4-.1,2-.1s1.2,0,1.8.1,1.2.2,1.8.3c.6.2,1.1.4,1.6.6.5.2,1,.5,1.6.8v-6.5l-2.8-1c-.3-.1-.4-.2-.5-.3-.1-.1-.1-.3-.1-.6v-2.5c0-.3,0-.5.1-.6s.2-.2.5-.3l9.9-2.1c.1,0,.2,0,.3-.1h.3c.3,0,.4.1.6.2.1.2.2.4.2.6v39.9l2.8,1Z"/>
      <path d="M107.7,5.3c0,.8-.2,1.5-.4,2.1-.3.7-.7,1.2-1.2,1.7s-1.1.9-1.7,1.2c-.7.3-1.4.4-2.1.4-.8,0-1.4-.1-2.1-.4-.7-.3-1.2-.7-1.7-1.2s-.9-1.1-1.2-1.7c-.3-.7-.4-1.4-.4-2.1,0-.8.1-1.5.4-2.1.3-.7.7-1.2,1.2-1.7s1.1-.9,1.8-1.1c.7-.3,1.4-.4,2.1-.4s1.4.1,2.1.4,1.2.7,1.7,1.2.9,1.1,1.2,1.7.3,1.3.3,2M98.3,20.6l-2.8-1c-.2-.1-.4-.2-.5-.3s-.1-.3-.1-.6v-2.5c0-.3,0-.5.1-.6.1-.2.3-.2.5-.3l9.9-2.1c.1,0,.2,0,.3-.1h.3c.3,0,.4.1.5.2.1.2.2.4.2.6v27.2l2.8,1c.3.1.4.2.5.3.1.1.1.3.1.6v2.4c0,.3-.1.6-.2.7s-.4.2-.7.2h-13.4c-.3,0-.6-.1-.7-.2s-.2-.4-.2-.7v-2.4c0-.3,0-.5.1-.6s.3-.2.5-.3l2.8-1s0-20.5,0-20.5Z"/>
      <path d="M135.8,30.2v-2.8c0-.3,0-.5-.1-.8-.1-.4-.1-.9-.2-1.3-.1-.5-.2-.9-.3-1.4s-.3-.9-.4-1.4c-.2-.5-.4-.9-.6-1.2-.3-.4-.6-.7-.9-1-.4-.3-.8-.5-1.2-.6-.3-.1-.6-.2-.8-.2-.3,0-.6-.1-.8-.1-.3,0-.6,0-.8.1-.3,0-.5.1-.8.2-.5.2-1,.4-1.4.8-.4.4-.7.8-1,1.3s-.5,1-.6,1.5-.3,1.1-.4,1.6c0,.2-.1.4-.1.6s-.1.4-.1.6c0,.3-.1.7-.1,1s0,.7-.1,1v4.1c0,.3,0,.5.1.8,0,.3,0,.5.1.8,0,.2,0,.4.1.6,0,.2.1.4.1.6.1.6.2,1.1.3,1.7.1.6.3,1.2.6,1.7s.6,1,1,1.4.9.7,1.5.9c.3.1.5.1.8.2h1.6c.3,0,.6-.1.8-.2.5-.1.8-.3,1.2-.6l.9-.9c.3-.4.5-.7.6-1.2.2-.4.3-.9.4-1.3s.2-.9.3-1.3c.1-.4.1-.9.2-1.3,0-.3.1-.6.1-.9v-3M144.7,30c0,.8,0,1.6-.1,2.4-.1.8-.2,1.6-.3,2.4-.1.8-.3,1.6-.5,2.4-.2.8-.5,1.5-.8,2.3-.5,1-1.1,2-1.8,2.9-.3.5-.7.9-1.1,1.3-.4.4-.8.8-1.3,1.1-.6.5-1.2.9-1.9,1.2s-1.4.6-2.1.8c-.7.2-1.4.4-2.2.5-.7.1-1.5.1-2.3.1s-1.5,0-2.3-.1c-.7-.1-1.5-.3-2.2-.5-.5-.1-.9-.3-1.4-.5-.4-.2-.9-.4-1.3-.7-.5-.3-.9-.6-1.3-.9s-.8-.7-1.2-1c-.9-.9-1.6-1.9-2.2-3s-1.1-2.2-1.4-3.4-.6-2.4-.7-3.6c-.2-1.2-.2-2.5-.2-3.7s.1-2.5.2-3.7c.2-1.2.4-2.4.8-3.6.4-1.2.8-2.3,1.4-3.3.6-1.1,1.3-2,2.2-3,.3-.3.7-.6,1-.9.4-.3.7-.6,1.1-.8.5-.3.9-.5,1.4-.8.5-.2,1-.4,1.5-.6.8-.3,1.6-.4,2.4-.5s1.6-.2,2.4-.2c1.5,0,3,.2,4.4.6,1.4.4,2.8,1.1,4,2,.4.3.9.7,1.2,1.1.4.4.8.8,1.1,1.3.4.5.7.9,1,1.5.3.5.6,1,.8,1.6.3.7.6,1.4.8,2.2s.4,1.5.5,2.3.2,1.6.3,2.4c.1.8.1,1.7.1,2.4"/>
      <path d="M183.5,22.8c.8.4,1.5.8,2.2,1.2s1.3.9,1.9,1.5c.6.5,1.1,1.2,1.5,1.8.4.7.8,1.4,1,2.3.2.5.3,1.1.3,1.6.1.5.1,1.1.1,1.7,0,.9-.1,1.8-.2,2.8-.1.9-.4,1.8-.7,2.7-.2.4-.3.8-.5,1.2-.2.4-.4.8-.7,1.2-.7,1.1-1.6,2-2.5,2.8-1,.8-2,1.4-3.1,1.9s-2.3.9-3.5,1.1-2.5.4-3.8.4c-1.7,0-3.4-.2-5.1-.6-1.7-.4-3.3-1-4.8-1.7-.3-.2-.7-.3-1-.5s-.7-.4-1-.6c-.2-.1-.3-.2-.5-.4-.2-.1-.2-.3-.2-.5,0-.1,0-.3.1-.4,0-.1.1-.2.2-.4l2.3-4.4c.1-.2.2-.3.3-.4.1-.1.3-.2.5-.2s.4.1.7.2c.2.1.4.2.6.3.3.2.6.3.9.4.3.1.6.3.9.4,1,.4,1.9.7,2.9,1,1,.2,2,.4,3,.4.7,0,1.4-.1,2.1-.2.7-.1,1.3-.3,1.9-.6.6-.3,1.1-.7,1.6-1.2s.8-1.1,1.1-1.8c.1-.4.2-.8.3-1.2s.1-.8.1-1.3c0-.3,0-.7-.1-1,0-.3-.1-.7-.2-1-.1-.5-.3-.9-.6-1.3-.4-.6-.8-1.1-1.4-1.5-.5-.4-1.1-.7-1.7-.9-.6-.2-1.3-.4-2-.4-.7-.1-1.4-.1-2-.1h-2.3c-.4,0-.6-.1-.8-.3s-.2-.4-.2-.8v-5c0-.2,0-.4.1-.6.1-.2.2-.3.5-.4h2.8c.6,0,1.3,0,2-.1s1.3-.3,1.9-.5c.6-.2,1.1-.6,1.6-1s.9-1,1.1-1.6c.2-.4.3-.9.4-1.4.1-.5.1-1,.1-1.5,0-.4,0-.8-.1-1.1-.1-.4-.1-.7-.3-1.1-.2-.5-.5-1-.8-1.4s-.7-.7-1.2-1c-.4-.2-.9-.4-1.4-.6-.5-.1-1-.2-1.6-.2-.8,0-1.7.2-2.4.5-.7.4-1.4.8-2,1.4q-.1.1-.2.2c-.1.1-.1.2-.2.2l-.6.6c-.1.1-.2.2-.2.3-.1.1-.2.2-.3.3s-.2.2-.3.2c-.1.1-.2.1-.4.1s-.3,0-.4-.1c-.1-.1-.2-.2-.3-.3l-3.7-3.3c-.1-.1-.2-.2-.3-.4-.1-.1-.1-.3-.1-.4,0-.2.1-.4.2-.5.1-.2.2-.3.3-.4.2-.3.5-.6.8-.9s.6-.6.8-.9c.7-.6,1.4-1.2,2.2-1.7s1.6-.9,2.4-1.2,1.7-.6,2.6-.7c.9-.2,1.8-.2,2.7-.2,1,0,2,.1,3,.3,1,.2,1.9.5,2.8.9.9.4,1.7.9,2.5,1.6s1.5,1.4,2,2.2c.2.3.4.7.7,1,.2.4.4.7.5,1.1.3.8.5,1.6.7,2.4.1.8.2,1.7.2,2.5,0,.7,0,1.3-.1,2s-.3,1.3-.5,1.9-.6,1.2-.9,1.7c-.4.5-.8,1-1.3,1.5s-1,.9-1.5,1.3c-.4.4-.9.8-1.4,1.1"/>
    </g>
  </g>
</svg>