<?xml version="1.0" encoding="UTF-8"?>
<svg id="Capa_2" data-name="Capa 2" xmlns="http://www.w3.org/2000/svg" viewBox="0 0 125.49 148.38">
  <g id="marca">
    <g>
      <path d="M17.38,126.61h2.91v21.77h-3.13v-16.94l-6.69,8.42h-.58l-6.77-8.42v16.94H0v-21.77h2.95l7.23,8.94,7.19-8.94Z"/>
      <path d="M33.53,126.48h2.19l9.76,21.9h-3.19l-2.9-6.45h-9.29l-2.72,6.45h-3.2l9.35-21.9ZM38.11,139.15l-3.51-7.89-3.26,7.89h6.77Z"/>
      <path d="M49.49,148.35v-21.74h7.34c2.96,0,5.3.44,7.03,1.33s3.1,2.2,4.11,3.92c1.02,1.72,1.53,3.61,1.53,5.64,0,1.45-.28,2.85-.84,4.18-.56,1.33-1.36,2.5-2.4,3.51-1.06,1.04-2.29,1.82-3.69,2.35-.82.32-1.57.54-2.26.65-.69.11-1.99.16-3.93.16h-6.89ZM56.51,129.38h-3.9v16.19h3.99c1.56,0,2.77-.11,3.63-.32.86-.21,1.58-.48,2.16-.81.58-.33,1.1-.73,1.58-1.21,1.54-1.56,2.31-3.53,2.31-5.91s-.79-4.24-2.37-5.72c-.58-.55-1.25-1-2-1.36-.75-.35-1.47-.59-2.14-.7-.68-.12-1.76-.17-3.26-.17Z"/>
      <path d="M75.09,148.38v-21.77h5.45c2.2,0,3.95.54,5.24,1.64,1.29,1.09,1.94,2.57,1.94,4.43,0,1.27-.32,2.36-.95,3.29-.63.93-1.54,1.62-2.73,2.07.7.46,1.38,1.08,2.04,1.87.67.79,1.6,2.17,2.81,4.13.76,1.24,1.37,2.17,1.82,2.79l1.15,1.56h-3.71l-.95-1.43c-.03-.05-.09-.14-.19-.26l-.61-.86-.96-1.59-1.04-1.7c-.64-.89-1.23-1.61-1.77-2.13-.54-.53-1.02-.91-1.45-1.14-.43-.23-1.16-.35-2.18-.35h-.81v9.48h-3.12ZM79.14,129.26h-.93v6.87h1.18c1.58,0,2.66-.13,3.25-.4.59-.27,1.04-.68,1.37-1.22.33-.55.49-1.17.49-1.86s-.18-1.31-.55-1.86c-.36-.55-.88-.95-1.54-1.18-.66-.23-1.75-.34-3.28-.34Z"/>
      <path d="M95.9,126.61h3.12v21.77h-3.12v-21.77Z"/>
      <path d="M105.48,148.35v-21.74h7.34c2.96,0,5.3.44,7.03,1.33s3.1,2.2,4.12,3.92c1.02,1.72,1.53,3.61,1.53,5.64,0,1.45-.28,2.85-.84,4.18-.56,1.33-1.36,2.5-2.4,3.51-1.06,1.04-2.29,1.82-3.69,2.35-.82.32-1.57.54-2.26.65-.69.11-1.99.16-3.93.16h-6.89ZM112.49,129.38h-3.9v16.19h3.99c1.56,0,2.77-.11,3.63-.32.86-.21,1.58-.48,2.16-.81.58-.33,1.1-.73,1.58-1.21,1.54-1.56,2.31-3.53,2.31-5.91s-.79-4.24-2.37-5.72c-.58-.55-1.25-1-2-1.36-.75-.35-1.47-.59-2.14-.7-.68-.12-1.76-.17-3.26-.17Z"/>
    </g>
    <g>
      <path d="M94.6,16.84H31.65c-.81,0-1.47.66-1.47,1.47s.66,1.47,1.47,1.47h62.95c.81,0,1.47-.66,1.47-1.47s-.66-1.47-1.47-1.47"/>
      <path d="M94.6,24.29H31.65c-.81,0-1.47.66-1.47,1.47s.66,1.47,1.47,1.47h62.95c.81,0,1.47-.66,1.47-1.47s-.66-1.47-1.47-1.47"/>
      <path d="M31.65,23.5h3.27c.81,0,1.47-.66,1.47-1.47s-.66-1.47-1.47-1.47h-3.27c-.81,0-1.47.66-1.47,1.47s.66,1.47,1.47,1.47"/>
      <path d="M94.6,20.56h-3.27c-.81,0-1.47.66-1.47,1.47s.66,1.47,1.47,1.47h3.27c.81,0,1.47-.66,1.47-1.47s-.66-1.47-1.47-1.47"/>
      <path d="M66.4,23.5c.81,0,1.47-.66,1.47-1.47s-.66-1.47-1.47-1.47h-6.55c-.81,0-1.47.66-1.47,1.47s.66,1.47,1.47,1.47h6.55Z"/>
      <polygon points="47.38 20.31 42.56 21.97 47.38 23.63 52.21 21.97 47.38 20.31"/>
      <polygon points="78.86 20.31 74.04 21.97 78.86 23.63 83.69 21.97 78.86 20.31"/>
      <path d="M88.37,21.97c0-.88-.71-1.6-1.6-1.6s-1.6.72-1.6,1.6.71,1.6,1.6,1.6,1.6-.72,1.6-1.6"/>
      <path d="M72.55,21.97c0-.88-.71-1.6-1.6-1.6s-1.6.72-1.6,1.6.72,1.6,1.6,1.6,1.6-.72,1.6-1.6"/>
      <path d="M56.89,21.97c0-.88-.72-1.6-1.6-1.6s-1.6.72-1.6,1.6.71,1.6,1.6,1.6,1.6-.72,1.6-1.6"/>
      <path d="M41.07,21.97c0-.88-.71-1.6-1.6-1.6s-1.6.72-1.6,1.6.71,1.6,1.6,1.6,1.6-.72,1.6-1.6"/>
      <path d="M97.74,0c-2.48,0-3.93,2.09-4.3,2.74-.18-.04-.94-.16-1.18-.16-.94,0-1.44.09-1.77.32.64.42,1.46,1.01,1.62,2.46-1.43-.17-2.02-.98-2.44-1.62-.23.33-.32.84-.32,1.77,0,.2,0,.43.01.63-1.05.1-2.08.73-2.51,1.33.44.6,1.46,1.23,2.51,1.33,0,.2-.01.43-.01.63,0,.94.09,1.44.32,1.77.47-.72,1.16-1.66,3.01-1.66h.28c0,.12.01.24.01.35,0,1.62-.75,3.1-2.72,3.1-1.31,0-2.01-.96-2.32-1.57.22-.3.34-.67.34-1.07,0-1.02-.82-1.84-1.84-1.84s-1.84.82-1.84,1.84c0,.4.13.77.34,1.07-.31.61-1,1.57-2.32,1.57-1.97,0-2.72-1.47-2.72-3.1,0-.11,0-.23.01-.35h.28c1.85,0,2.54.94,3.01,1.66.23-.33.32-.84.32-1.77,0-.2,0-.43-.01-.63,1.05-.1,2.08-.73,2.51-1.33-.44-.6-1.46-1.23-2.51-1.33,0-.2.01-.43.01-.63,0-.94-.09-1.44-.32-1.77-.42.64-1.01,1.45-2.44,1.62.17-1.44.98-2.04,1.63-2.46-.33-.23-.84-.32-1.77-.32-.2,0-.43,0-.63.01-.1-1.05-.73-2.08-1.33-2.51-.6.44-1.23,1.46-1.33,2.51-.2,0-.43-.01-.63-.01-.94,0-1.44.09-1.77.32.64.42,1.46,1.01,1.62,2.46-1.43-.17-2.02-.98-2.44-1.62-.23.33-.32.84-.32,1.77,0,.2,0,.43.01.63-1.05.1-2.08.73-2.51,1.33.43.6,1.46,1.23,2.51,1.33,0,.2-.01.43-.01.63,0,.94.09,1.44.32,1.77.47-.72,1.16-1.66,3.01-1.66h.28c0,.12.01.24.01.35,0,1.62-.75,3.1-2.72,3.1-1.31,0-2.01-.96-2.32-1.57.22-.3.34-.67.34-1.07,0-1.02-.82-1.84-1.84-1.84-.13,0-.25.01-.37.04-.84.17-1.47.91-1.47,1.8,0,.4.13.77.34,1.07-.31.61-1,1.57-2.32,1.57-1.97,0-2.72-1.47-2.72-3.1,0-.11,0-.23.01-.35h.28c1.85,0,2.54.94,3.01,1.66.23-.33.32-.84.32-1.77,0-.2,0-.43-.01-.63,1.05-.1,2.08-.73,2.51-1.33-.44-.6-1.46-1.23-2.51-1.33,0-.2.01-.43.01-.63,0-.94-.09-1.44-.32-1.77-.42.64-1.01,1.45-2.44,1.62.17-1.44.98-2.04,1.62-2.46-.33-.23-.84-.32-1.77-.32-.2,0-.43,0-.63.01-.1-1.05-.73-2.08-1.33-2.51-.6.44-1.23,1.46-1.33,2.51-.2,0-.43-.01-.63-.01-.94,0-1.44.09-1.77.32.64.42,1.46,1.01,1.62,2.46-1.43-.17-2.02-.98-2.44-1.62-.23.33-.32.84-.32,1.77,0,.2,0,.43.01.63-1.05.1-2.08.73-2.51,1.33.44.6,1.46,1.23,2.51,1.33,0,.2-.01.43-.01.63,0,.94.09,1.44.32,1.77.47-.72,1.16-1.66,3.01-1.66h.28c0,.12.01.24.01.35,0,1.62-.75,3.1-2.72,3.1-1.32,0-2.01-.97-2.32-1.57.21-.3.34-.67.34-1.06,0-1.02-.82-1.84-1.84-1.84s-1.84.82-1.84,1.84c0,.4.13.77.35,1.08-.31.61-1,1.56-2.31,1.56-1.97,0-2.72-1.47-2.72-3.1,0-.11,0-.23.01-.35h.28c1.85,0,2.54.94,3.01,1.66.23-.33.32-.84.32-1.77,0-.2,0-.43-.01-.63,1.05-.1,2.08-.73,2.51-1.33-.44-.6-1.46-1.23-2.51-1.33,0-.2.01-.43.01-.63,0-.94-.09-1.44-.32-1.77-.42.64-1.01,1.45-2.44,1.62.17-1.44.98-2.04,1.62-2.46-.33-.23-.84-.32-1.77-.32-.2,0-.43,0-.63.01-.1-1.05-.73-2.08-1.33-2.51-.6.44-1.23,1.46-1.33,2.51-.2,0-.43-.01-.63-.01-.94,0-1.44.09-1.77.32.64.42,1.46,1.01,1.62,2.46-1.43-.17-2.02-.98-2.44-1.62-.23.33-.32.84-.32,1.77,0,.2,0,.43.01.63-1.05.1-2.08.73-2.51,1.33.44.6,1.46,1.23,2.51,1.33,0,.2-.01.43-.01.63,0,.94.09,1.44.32,1.77.47-.72,1.16-1.66,3.01-1.66h.28c0,.12.01.24.01.35,0,1.62-.75,3.1-2.72,3.1-1.31,0-2.01-.96-2.32-1.57.22-.3.34-.67.34-1.07,0-1.02-.82-1.84-1.84-1.84-.51,0-.97.21-1.3.54-.33.33-.54.79-.54,1.3,0,.4.13.77.34,1.07-.31.61-1,1.57-2.32,1.57-1.97,0-2.72-1.47-2.72-3.1,0-.11,0-.23.01-.35h.28c1.85,0,2.54.94,3.01,1.66.23-.33.32-.84.32-1.77,0-.2,0-.43-.01-.63,1.05-.1,2.08-.73,2.51-1.33-.43-.6-1.46-1.23-2.51-1.33,0-.2.01-.43.01-.63,0-.94-.09-1.44-.32-1.77-.42.64-1.01,1.45-2.44,1.62.17-1.44.98-2.04,1.62-2.46-.33-.23-.84-.32-1.77-.32-.24,0-1,.11-1.18.16-.37-.65-1.81-2.74-4.3-2.74-1.59,0-3.05.78-3.27.99.83,0,2.16.07,3.26,1.17,1.56,1.56,1.67,2.82,1.67,7.1,0,4.57,2.34,6.8,5.71,6.8,1.94,0,3.91-1.49,3.91-1.49,0,0,1.97,1.49,3.91,1.49,2.05,0,3.86-1.58,3.86-1.58,0,0,1.81,1.58,3.86,1.58,1.94,0,3.91-1.49,3.91-1.49,0,0,1.97,1.49,3.91,1.49,2.05,0,3.86-1.58,3.86-1.58,0,0,1.81,1.58,3.86,1.58,1.94,0,3.91-1.49,3.91-1.49,0,0,1.97,1.49,3.91,1.49,2.05,0,3.86-1.58,3.86-1.58,0,0,1.81,1.58,3.86,1.58,1.94,0,3.91-1.49,3.91-1.49,0,0,1.97,1.49,3.91,1.49,3.37,0,5.71-2.23,5.71-6.8,0-4.28.12-5.54,1.68-7.1,1.1-1.1,2.43-1.17,3.26-1.17-.21-.21-1.68-.99-3.27-.99"/>
      <path d="M31.18,28.24v52.36c0,15.51,10.79,24.35,31.93,24.35s31.93-8.84,31.93-24.35V28.24H31.18ZM60.14,31.39l2.11.23.86-1.95.86,1.95,2.12-.23-1.26,1.72,1.26,1.72-2.12-.23-.86,1.95-.86-1.95-2.11.23,1.26-1.72-1.26-1.72ZM33.19,31.39l2.12.23.86-1.95.86,1.95,2.12-.23-1.26,1.72,1.26,1.72-2.12-.23-.86,1.95-.86-1.95-2.12.23,1.26-1.72-1.26-1.72ZM33.19,57.13l2.12.23.86-1.95.86,1.95,2.12-.23-1.26,1.72,1.26,1.72-2.12-.23-.86,1.95-.86-1.95-2.12.23,1.26-1.72-1.26-1.72ZM39.53,86.3l-2.12-.23-.86,1.95-.86-1.95-2.12.23,1.26-1.72-1.26-1.72,2.12.23.86-1.95.86,1.95,2.12-.23-1.26,1.72,1.26,1.72ZM63.12,94.62c-12.22,0-17.68-3.65-20.09-7.64h40.19c-2.41,3.99-7.88,7.64-20.09,7.64M69.97,81.23l2.16,2.54-1.12.38c-.2.07-.47.27-.59.44l-.25.35h-2.51c-1.43,0-2.6-1.16-2.6-2.6v-12.05l1.51,3.01c.19.38.67.61,1.05.5l.7-.19v.6c0,.72.05,1.35.12,1.9.35,2.56,1.37,3.4,1.85,3.66l-.38.53c-.19.26-.17.67.04.92M85.08,79.5c0,1.49-.14,3.44-.89,5.44h-5.05l-1.71-3.86c.7-.74,1.12-1.73,1.12-2.82,0-.75-.2-1.45-.55-2.06,0,0-1.98-3.41-1.98-3.41l-2.37-6.75-.17-2.75.53-.29c.37-.21.57-.7.43-1.11l-.16-.47c-.14-.41-.59-.67-1.01-.6l-.77.14-1.13-.89c-.17-.13-.47-.21-.68-.17l-.69.14-1.6-1.27c-.17-.13-.41-.1-.53.07l-.94,1.3c-.19.26-.2.69-.03.97l1.43,2.32v4.15h-1.02c-.56,0-1.02-.61-1.02-1.36v-1.33c0-.21-.12-.51-.27-.66l-.93-.93v-5.31c6.73-.67,11.88-4.37,11.88-8.85,0-4.95-6.3-8.96-14.06-8.96s-14.06,4.01-14.06,8.96c0,4.47,5.15,8.18,11.88,8.85v24.35c0,1.44-1.16,2.6-2.6,2.6h-16.08c-.74-2-.89-3.95-.89-5.44v-41.53h43.92v41.53ZM92.65,86.3l-2.12-.23-.86,1.95-.86-1.95-2.12.23,1.26-1.72-1.26-1.72,2.12.23.86-1.95.86,1.95,2.12-.23-1.26,1.72,1.26,1.72ZM93.04,60.56l-2.12-.23-.86,1.95-.86-1.95-2.12.23,1.26-1.72-1.26-1.72,2.12.23.86-1.95.86,1.95,2.12-.23-1.26,1.72,1.26,1.72ZM93.04,34.82l-2.12-.23-.86,1.95-.86-1.95-2.12.23,1.26-1.72-1.26-1.72,2.12.23.86-1.95.86,1.95,2.12-.23-1.26,1.72,1.26,1.72Z"/>
    </g>
  </g>
</svg>