<?xml version="1.0" encoding="UTF-8"?>
<svg id="Capa_2" data-name="Capa 2" xmlns="http://www.w3.org/2000/svg" viewBox="0 0 233.94 84.22">
  <defs>
    <style>
      .cls-1 {
        fill: #ff7070;
      }

      .cls-2 {
        fill: #0f0f0f;
      }
    </style>
  </defs>
  <g id="Capa_1-2" data-name="Capa 1">
    <g>
      <path class="cls-1" d="M116.97,82.22c-31.02,0-60.15-4.34-82.03-12.22C14,62.47,2,52.3,2,42.11S14,21.75,34.94,14.22C56.82,6.34,85.95,2,116.97,2s60.15,4.34,82.03,12.21c20.93,7.54,32.94,17.7,32.94,27.89s-12,20.36-32.94,27.89c-21.88,7.88-51.01,12.22-82.03,12.22Z"/>
      <path class="cls-1" d="M116.97,4c30.79,0,59.69,4.3,81.35,12.1,20.09,7.23,31.61,16.71,31.61,26.01s-11.52,18.78-31.61,26.01c-21.67,7.8-50.56,12.1-81.35,12.1s-59.69-4.3-81.35-12.1c-20.09-7.23-31.61-16.71-31.61-26.01s11.52-18.78,31.61-26.01c21.67-7.8,50.56-12.1,81.35-12.1M116.97,0C52.37,0,0,18.85,0,42.11s52.37,42.11,116.97,42.11,116.97-18.85,116.97-42.11S181.57,0,116.97,0h0Z"/>
    </g>
    <g>
      <path class="cls-2" d="M38.89,27.14h18.38v3.51h-14.54v9.24h13.21v3.51h-13.21v10.18h14.54v3.51h-18.38v-29.93Z"/>
      <path class="cls-2" d="M64.12,27.14h7.23l11.59,29.07v-29.07h3.76v29.93h-7.48l-11.33-28.86v28.86h-3.76v-29.93Z"/>
      <path class="cls-2" d="M92.26,27.14h4.1l8.29,28.86,8.29-28.86h4.1l-8.81,29.93h-7.18l-8.81-29.93Z"/>
      <path class="cls-2" d="M121.33,53.52h6.24v-22.83h-6.24v-3.55h16.33v3.55h-6.24v22.83h6.24v3.55h-16.33v-3.55Z"/>
      <path class="cls-2" d="M160.97,49.33h-12.57l-2.31,7.74h-4.15l9.32-29.93h6.93l9.23,29.93h-4.15l-2.31-7.74ZM159.94,45.91l-5.26-17.7-5.26,17.7h10.52Z"/>
      <path class="cls-2" d="M172.98,27.14h11.42c5.56,0,9.06,2.95,9.06,8.04,0,5.64-3.51,8.25-9.06,8.25h-6.46l17.1,13.64h-6.11l-12.19-9.96v9.96h-3.76v-29.93ZM184.18,39.93c3.21,0,5.39-1.11,5.39-4.7s-2.18-4.66-5.39-4.66h-7.44v9.36h7.44Z"/>
    </g>
  </g>
</svg>